<svg viewBox="0 0 512 512" xmlns="http://www.w3.org/2000/svg"><path d="m170 212c-71.683594 0-130 58.316406-130 130s58.316406 130 130 130 130-58.316406 130-130-58.316406-130-130-130zm0 240c-60.652344 0-110-49.347656-110-110s49.347656-110 110-110 110 49.347656 110 110-49.347656 110-110 110zm0 0"/><path d="m170 312c16.542969 0 30-13.457031 30-30s-13.457031-30-30-30-30 13.457031-30 30 13.457031 30 30 30zm0-40c5.515625 0 10 4.484375 10 10s-4.484375 10-10 10-10-4.484375-10-10 4.484375-10 10-10zm0 0"/><path d="m170 372c-16.542969 0-30 13.457031-30 30s13.457031 30 30 30 30-13.457031 30-30-13.457031-30-30-30zm0 40c-5.515625 0-10-4.484375-10-10s4.484375-10 10-10 10 4.484375 10 10-4.484375 10-10 10zm0 0"/><path d="m200 342c0 16.542969 13.457031 30 30 30s30-13.457031 30-30-13.457031-30-30-30-30 13.457031-30 30zm40 0c0 5.515625-4.484375 10-10 10s-10-4.484375-10-10 4.484375-10 10-10 10 4.484375 10 10zm0 0"/><path d="m110 312c-16.542969 0-30 13.457031-30 30s13.457031 30 30 30 30-13.457031 30-30-13.457031-30-30-30zm0 40c-5.515625 0-10-4.484375-10-10s4.484375-10 10-10 10 4.484375 10 10-4.484375 10-10 10zm0 0"/><path d="m342 20 .78125.003906h.054688c5.5 0 9.972656-4.445312 10-9.949218.027343-5.523438-4.425782-10.023438-9.945313-10.05078175l-.890625-.00390625c-5.523438 0-10 4.476562-10 10s4.476562 10 10 10zm0 0"/><path d="m384.347656 5.320312c-5.351562-1.375-10.800781 1.851563-12.171875 7.203126-1.371093 5.347656 1.851563 10.796874 7.203125 12.167968 66.308594 17.003906 112.621094 76.757813 112.621094 145.308594 0 82.710938-67.289062 150-150 150-1.136719 0-2.28125-.015625-3.425781-.042969-.894531-6.859375-2.191407-13.589843-3.878907-20.167969 2.433594.136719 4.871094.210938 7.304688.210938 71.683594 0 130-58.316406 130-130 0-71.679688-58.316406-130-130-130s-130 58.316406-130 130c0 2.4375.074219 4.871094.210938 7.308594-6.578126-1.6875-13.308594-2.988282-20.167969-3.878906-.027344-1.148438-.042969-2.292969-.042969-3.429688 0-68.488281 46.257812-128.226562 112.492188-145.273438 5.351562-1.378906 8.570312-6.832031 7.191406-12.179687-1.375-5.347656-6.824219-8.566406-12.175782-7.191406-75.074218 19.324219-127.507812 87.027343-127.507812 164.644531 0 .671875.011719 1.351562.019531 2.027344-.671875-.007813-1.34375-.027344-2.019531-.027344-93.738281 0-170 76.261719-170 170s76.261719 170 170 170 170-76.261719 170-170c0-.675781-.019531-1.347656-.027344-2.019531.675782.007812 1.355469.019531 2.027344.019531 93.738281 0 170-76.261719 170-170 0-77.6875-52.492188-145.40625-127.652344-164.679688zm-152.347656 164.679688c0-60.652344 49.347656-110 110-110s110 49.347656 110 110-49.347656 110-110 110c-4.707031 0-9.417969-.3125-14.070312-.90625-17.277344-43.222656-51.800782-77.746094-95.023438-95.023438-.59375-4.652343-.90625-9.363281-.90625-14.070312zm-62 322c-82.710938 0-150-67.289062-150-150s67.289062-150 150-150 150 67.289062 150 150-67.289062 150-150 150zm0 0"/><path d="m342 140c16.542969 0 30-13.457031 30-30s-13.457031-30-30-30-30 13.457031-30 30 13.457031 30 30 30zm0-40c5.515625 0 10 4.484375 10 10s-4.484375 10-10 10-10-4.484375-10-10 4.484375-10 10-10zm0 0"/><path d="m342 200c-16.542969 0-30 13.457031-30 30s13.457031 30 30 30 30-13.457031 30-30-13.457031-30-30-30zm0 40c-5.515625 0-10-4.484375-10-10s4.484375-10 10-10 10 4.484375 10 10-4.484375 10-10 10zm0 0"/><path d="m402 200c16.542969 0 30-13.457031 30-30s-13.457031-30-30-30-30 13.457031-30 30 13.457031 30 30 30zm0-40c5.515625 0 10 4.484375 10 10s-4.484375 10-10 10-10-4.484375-10-10 4.484375-10 10-10zm0 0"/><path d="m312 170c0-16.542969-13.457031-30-30-30s-30 13.457031-30 30 13.457031 30 30 30 30-13.457031 30-30zm-30 10c-5.515625 0-10-4.484375-10-10s4.484375-10 10-10 10 4.484375 10 10-4.484375 10-10 10zm0 0"/></svg>