<?xml version="1.0" encoding="iso-8859-1"?>
<!-- Generator: Adobe Illustrator 19.0.0, SVG Export Plug-In . SVG Version: 6.00 Build 0)  -->
<svg version="1.1" id="Capa_1" xmlns="http://www.w3.org/2000/svg" xmlns:xlink="http://www.w3.org/1999/xlink" x="0px" y="0px"
	 viewBox="0 0 512 512" style="enable-background:new 0 0 512 512;" xml:space="preserve">
<g>
	<g>
		<path d="M315.985,178.41c-0.928-4.037-4.951-6.56-8.99-5.629c-4.036,0.928-6.557,4.953-5.629,8.991
			c1.768,7.688,4.413,15.194,7.864,22.309c10.713,22.085,26.219,48.3,20.596,89.791c-1.26,9.297-9.285,16.307-18.665,16.307
			c-13.926,0-94.298,0-110.316,0c-9.381,0-17.405-7.01-18.666-16.307c-5.592-41.268,9.726-67.381,20.596-89.792
			c17.961-37.031,14.153-82.088-18.534-118.392c-4.715-5.238-7.311-12.005-7.311-19.051c0-8.139,5.807-15.127,13.81-16.615
			l16.796-3.125c15.638-2.909,27.147-16.169,27.975-31.897h40.987c0.828,15.728,12.337,28.987,27.974,31.897l16.797,3.126
			c8.002,1.487,13.809,8.476,13.809,16.614c0,7.046-2.597,13.813-7.311,19.05c-14.919,16.582-24.846,34.604-28.09,58.388
			c-0.561,4.104,2.313,7.885,6.417,8.445c4.1,0.562,7.885-2.313,8.445-6.418c2.849-20.889,11.587-36.171,24.375-50.38
			c7.196-7.997,11.161-18.326,11.161-29.085c0-15.363-10.963-28.554-26.066-31.362l-16.796-3.125
			c-9.135-1.7-15.765-9.678-15.765-18.969C291.447,5.913,285.533,0,278.266,0h-44.53c-7.268,0-13.182,5.913-13.182,13.182
			c0,9.292-6.63,17.269-15.766,18.969l-16.795,3.125c-15.105,2.809-26.067,15.999-26.067,31.362c0,13.32,5.184,22.444,13.272,31.43
			c24.601,27.335,30.128,66.377,14.078,99.466c-10.925,22.523-28.227,52.141-21.963,98.354c2.264,16.699,16.679,29.293,33.53,29.293
			h36.961v121.154c-15.999,3.753-30.473,12.432-41.487,25.093c-10.313,0.974-18.41,9.675-18.41,20.237
			c0,11.213,9.122,20.335,20.336,20.335h40.738c4.143,0,7.5-3.357,7.5-7.5c0-4.143-3.357-7.5-7.5-7.5h-40.738
			c-2.941,0-5.335-2.393-5.335-5.334c0-2.941,2.394-5.334,5.335-5.334c23.424,0,90.188,0,115.515,0c2.941,0,5.334,2.393,5.334,5.334
			c0,2.941-2.393,5.334-5.334,5.334h-39.773c-4.143,0-7.5,3.357-7.5,7.5c0,4.143,3.357,7.5,7.5,7.5h39.773
			c11.213,0,20.335-9.123,20.335-20.335c0-10.563-8.097-19.264-18.41-20.238c-11.014-12.661-25.488-21.338-41.485-25.093V325.18
			h36.961c16.853,0,31.267-12.594,33.529-29.294c6.269-46.257-11.145-76.05-21.963-98.352
			C319.767,191.434,317.499,185,315.985,178.41z M252.805,325.18h6.391v119.117c-2.397-0.095-4.461-0.076-6.391,0V325.18z
			 M293.508,471.33h-75.015C240.712,455.256,271.154,455.159,293.508,471.33z"/>
	</g>
</g>
<g>
</g>
<g>
</g>
<g>
</g>
<g>
</g>
<g>
</g>
<g>
</g>
<g>
</g>
<g>
</g>
<g>
</g>
<g>
</g>
<g>
</g>
<g>
</g>
<g>
</g>
<g>
</g>
<g>
</g>
</svg>
