<?xml version="1.0" encoding="iso-8859-1"?>
<!-- Generator: Adobe Illustrator 19.0.0, SVG Export Plug-In . SVG Version: 6.00 Build 0)  -->
<svg version="1.1" id="Capa_1" xmlns="http://www.w3.org/2000/svg" xmlns:xlink="http://www.w3.org/1999/xlink" x="0px" y="0px"
	 viewBox="0 0 511.999 511.999" style="enable-background:new 0 0 511.999 511.999;" xml:space="preserve">
<g>
	<g>
		<path d="M463.747,142.969c-28.2-7.891-65.56-12.237-105.198-12.237c-14.971,0-29.745,0.624-43.912,1.853
			c-4.159,0.361-7.239,4.026-6.878,8.185s4.021,7.236,8.185,6.878c13.734-1.192,28.069-1.796,42.605-1.796
			c90.822,0,138.332,21.655,138.332,33.264s-47.51,33.264-138.332,33.264s-138.332-21.655-138.332-33.264
			c0-4.756,10.412-16.043,49.817-24.718c4.077-0.898,6.655-4.931,5.758-9.009c-0.897-4.077-4.928-6.654-9.009-5.758
			c-28.14,6.196-61.686,18.075-61.686,39.485v63.633H57.931v-3.95c0-6.948-5.652-12.6-12.6-12.6H12.6c-6.948,0-12.6,5.652-12.6,12.6
			v129.867c0,6.948,5.652,12.6,12.6,12.6h32.731c6.948,0,12.6-5.652,12.6-12.6v-3.951h45.863c4.175,0,7.56-3.385,7.56-7.56
			s-3.385-7.56-7.56-7.56H57.931v-91.727h19.663v45.86c0,4.175,3.385,7.56,7.56,7.56s7.56-3.385,7.56-7.56v-45.86h18.144v19.15
			c0,4.175,3.385,7.56,7.56,7.56c4.175,0,7.56-3.385,7.56-7.56v-19.15h20.16v19.15c0,4.175,3.385,7.56,7.56,7.56
			s7.56-3.385,7.56-7.56v-19.15h20.16v19.15c0,4.175,3.385,7.56,7.56,7.56c4.175,0,7.56-3.385,7.56-7.56v-19.15h16.121h4.039v45.863
			c0,4.175,3.385,7.56,7.56,7.56s7.56-3.385,7.56-7.56v-45.863h20.16v19.15c0,4.175,3.385,7.56,7.56,7.56
			c4.175,0,7.56-3.385,7.56-7.56v-19.15h20.16v19.15c0,4.175,3.385,7.56,7.56,7.56s7.56-3.385,7.56-7.56v-19.15h20.16v19.15
			c0,4.175,3.385,7.56,7.56,7.56s7.56-3.385,7.56-7.56v-19.15h20.16v45.863c0,4.175,3.385,7.56,7.56,7.56s7.56-3.385,7.56-7.56
			v-45.863c0,0,17.648-0.068,20.16-0.194v19.344c0,4.175,3.385,7.56,7.56,7.56s7.56-3.385,7.56-7.56v-20.875
			c6.852-1.044,13.587-2.548,20.16-4.507v12.027c0,4.175,3.385,7.56,7.56,7.56s7.56-3.385,7.56-7.56v-16.393
			c0-0.345-0.031-0.683-0.076-1.016c7.002-2.934,13.767-6.393,20.236-10.356v11.372c0,4.175,3.385,7.56,7.56,7.56
			s7.56-3.385,7.56-7.56v-21.987c6.294-5.025,12.211-10.573,17.672-16.621c0.056,25.692,0.086,61.789-0.501,70.232
			c-1.485,21.394-12.333,39.981-30.545,52.339c-15.933,10.811-43.28,18.362-66.501,18.362h-247.23c-4.175,0-7.56,3.385-7.56,7.56
			s3.385,7.56,7.56,7.56h247.224c21.943,0,53.641-6.484,74.99-20.97c21.815-14.801,35.352-38.056,37.139-63.802
			c0.683-9.83,0.973-98.935,0.973-100.826C512,164.091,495.765,151.929,463.747,142.969z M42.811,250.309v106.847v8.991H15.12
			V241.318h27.691V250.309z M385.527,242.75h-165.31v-41.196c7.944,5.174,18.998,9.755,33.134,13.71
			c28.2,7.891,65.56,12.237,105.198,12.237s76.998-4.346,105.198-12.237c1.813-0.507,3.568-1.026,5.28-1.554
			C445.603,232.292,416.34,242.75,385.527,242.75z"/>
	</g>
</g>
<g>
	<g>
		<path d="M406.082,159.104c-12.797-3.581-29.679-5.553-47.534-5.553c-17.856,0-34.738,1.972-47.535,5.553
			c-16.17,4.525-24.368,11.258-24.368,20.012c0,8.754,8.199,15.486,24.368,20.011c12.797,3.581,29.679,5.553,47.535,5.553
			c17.856,0,34.737-1.972,47.535-5.553c16.17-4.525,24.368-11.257,24.368-20.011C430.451,170.362,422.252,163.63,406.082,159.104z
			 M398.611,185.448c-11.074,2.653-25.302,4.114-40.062,4.114c-31.062,0-51.461-6.255-56.161-10.406
			c1.76-1.459,6.391-4.044,16.098-6.37c11.074-2.653,25.302-4.114,40.063-4.114c31.062,0,51.462,6.255,56.161,10.406
			C412.95,180.536,408.318,183.122,398.611,185.448z"/>
	</g>
</g>
<g>
</g>
<g>
</g>
<g>
</g>
<g>
</g>
<g>
</g>
<g>
</g>
<g>
</g>
<g>
</g>
<g>
</g>
<g>
</g>
<g>
</g>
<g>
</g>
<g>
</g>
<g>
</g>
<g>
</g>
</svg>
