<svg height="512" viewBox="0 0 64 64" width="512" xmlns="http://www.w3.org/2000/svg"><path d="m35 2a26.958 26.958 0 0 0 -21.233 10.353l-4.334-4.334a3.947 3.947 0 0 0 .567-2.019 4 4 0 1 0 -4 4 3.947 3.947 0 0 0 2.019-.567l4.553 4.553a26.934 26.934 0 0 0 1.472 32.014h-3.544a4.5 4.5 0 0 0 0 9h6a2.5 2.5 0 0 1 0 5h-14.5v2h14.5a4.5 4.5 0 0 0 0-9h-6a2.5 2.5 0 0 1 0-5h5.338a26.994 26.994 0 1 0 19.162-46zm-29 6a2 2 0 1 1 2-2 2 2 0 0 1 -2 2zm29-4a24.846 24.846 0 0 1 13.659 4.077q-1.511 2.028-3.155 3.868l-17.6-6.914a24.921 24.921 0 0 1 7.096-1.031zm-9.935 2.064 18.973 7.454q-1.357 1.407-2.774 2.7l-19.964-8.118a25.041 25.041 0 0 1 3.765-2.036zm-5.665 3.425 20.189 8.2q-1.4 1.192-2.834 2.28l-19.763-8.283a25.125 25.125 0 0 1 2.408-2.197zm-3.8 3.778 19.28 8.085c-1.5 1.061-3 2.042-4.487 2.946l-17.137-7.612a25.088 25.088 0 0 1 2.334-3.419zm-3.254 5.2 15.927 7.078c-1.667.943-3.3 1.785-4.881 2.545l-12.463-5.826a24.8 24.8 0 0 1 1.407-3.798zm-1.878 5.785 10.566 4.93c-1.448.644-2.826 1.21-4.114 1.706l-6.888-2.756a25.012 25.012 0 0 1 .426-3.881zm-.425 6.039 4.057 1.625c-1.465.507-2.73.9-3.754 1.195a24.934 24.934 0 0 1 -.313-2.821zm.718 4.787c8.518-2.428 27.31-9.392 39.537-25.837a25.409 25.409 0 0 1 2.467 2.18c-12.197 16.579-32.173 23.859-41.15 26.407a24.612 24.612 0 0 1 -.864-2.751zm7.708 12.646c1.474-.348 3.106-.784 4.86-1.323l2.389 5.8a25.012 25.012 0 0 1 -7.259-4.478zm9.765 5.336-3.004-7.272q1.983-.666 4.131-1.515l4.306 9.691a24.818 24.818 0 0 1 -5.443-.905zm7.638.919-4.663-10.47q2.118-.9 4.343-2.007l5.561 11.739a24.89 24.89 0 0 1 -5.251.737zm7.19-1.316-5.72-12.075q1.191-.63 2.4-1.323l6.872 11.869a24.9 24.9 0 0 1 -3.562 1.528zm5.284-2.532-6.88-11.883q1.4-.847 2.812-1.784l7.791 10.788a25.14 25.14 0 0 1 -3.733 2.878zm5.151-4.318-7.577-10.477q1.706-1.194 3.417-2.527l6.577 9.864a25.087 25.087 0 0 1 -2.427 3.139zm3.561-5.042-6.143-9.215q1.507-1.237 3.007-2.592l5.238 6.493a24.814 24.814 0 0 1 -2.112 5.313zm2.942-11.771a25.059 25.059 0 0 1 -.313 3.937l-4.3-5.337q2.022-1.919 4.008-4.067a25.007 25.007 0 0 1 .605 5.467zm-1.237-7.755a79.176 79.176 0 0 1 -42.015 24.813 25.294 25.294 0 0 1 -1.861-2.23c9.473-2.648 29.5-9.96 42.1-26.714a24.981 24.981 0 0 1 1.776 4.131zm-2.892-5.984c-12.489 17.13-33.092 24.359-42.165 26.819a24.632 24.632 0 0 1 -1.3-2.4c9.243-2.652 29.263-10.053 41.725-26.756a25.023 25.023 0 0 1 1.74 2.337z"/><path d="m39 6h2v2h-2z"/><path d="m43 8h2v2h-2z"/></svg>